# xmcd
#
# Track frame offsets:
#	150
#	22400
#	58795
#	84295
#	115307
#	138130
#	181475
#	204092
#	227587
#
# Disc length: 3207 seconds
#
# Revision: 0
# Processed by: cddbd v1.5.1PL0 Copyright (c) Steve Scherf et al.
# Submitted via: dBpowerAMP V4.0
#
DISCID=720c8509
DTITLE=Marcos Ottaviano - November 12 Sessions
DYEAR=1998
DGENRE=Blues
TTITLE0=Mot Blues
TTITLE1=Ain't No Sunshine
TTITLE2=Trust Your Heart
TTITLE3=Ramblin' on my Mind
TTITLE4=The Tripper
TTITLE5=Crying Healing
TTITLE6=Going Down
TTITLE7=Little Angel
TTITLE8=Ain't No Sunshine (Radio Edition)
EXTD=
EXTT0=
EXTT1=
EXTT2=
EXTT3=
EXTT4=
EXTT5=
EXTT6=
EXTT7=
EXTT8=
PLAYORDER=
